<?xml version="1.0" encoding="UTF-8" standalone="no"?>
<svg
   version="1.1"
   viewBox="0 0 256 256"
   id="svg7"
   sodipodi:docname="futaPill+.svg"
   xml:space="preserve"
   inkscape:version="1.3.2 (091e20e, 2023-11-25, custom)"
   xmlns:inkscape="http://www.inkscape.org/namespaces/inkscape"
   xmlns:sodipodi="http://sodipodi.sourceforge.net/DTD/sodipodi-0.dtd"
   xmlns="http://www.w3.org/2000/svg"
   xmlns:svg="http://www.w3.org/2000/svg"><defs
     id="defs7" /><sodipodi:namedview
     id="namedview7"
     pagecolor="#ffffff"
     bordercolor="#000000"
     borderopacity="0.25"
     inkscape:showpageshadow="2"
     inkscape:pageopacity="0.0"
     inkscape:pagecheckerboard="0"
     inkscape:deskcolor="#d1d1d1"
     inkscape:zoom="4.2923591"
     inkscape:cx="122.42685"
     inkscape:cy="136.63815"
     inkscape:window-width="1920"
     inkscape:window-height="991"
     inkscape:window-x="-9"
     inkscape:window-y="-9"
     inkscape:window-maximized="1"
     inkscape:current-layer="g7" /><g
     fill-rule="evenodd"
     id="g7"
     style="display:inline"><g
       stroke="#000000"
       id="g4"><path
         d="m 23.598,205.89 c 73.77,-25.683 152.09,-52.504 229.78,-79.168 l -9.647,-6.8747 -1.9088,-8.616 -7.8288,-5.9909 -2.8678,-8.1766 -7.2792,-4.1653 -1.7988,-6.2695 -5.9328,-4.9391 -3.2418,-6.1829 -209.7,67.197 5.5148,5.9929 -0.18269,7.9641 5.2809,6.0775 -0.31036,8.8882 5.8245,7.2861 -0.83896,9.6569 5.0444,7.4836 z"
         fill="#d8d9e1"
         stroke-width="0.857"
         id="path1" /><path
         d="m 30.347,140.81 c -22.015,7.328 1.873,50.718 22.735,43.737 l 164.34,-54.996 c 25.01,-8.37 -1.074,-50.66 -23.168,-43.304 z"
         fill="#b3b3b3"
         stroke-width="0.857"
         id="path2" /><path
         d="m 172.01,78.73 -55.297,17.555 18.301,55.74 54.887,-18.234 c 33.77,-11.22 17.179,-66.195 -17.89,-55.061 z"
         fill="#ffd5d5"
         stroke-width="0.72"
         id="path3"
         style="display:inline" /><path
         d="M 80.165,170.07 136.585,152.16 117.912,95.288 61.91,113.892 C 27.455,125.339 44.383,181.43 80.165,170.071 Z"
         fill="#ff5555"
         stroke-width="0.735"
         id="path4" /><path
         d="m 113.9472,119.32386 -16.736003,5.9897 c -2.3748,-7.1362 -4.2764,-11.04 -7.1546,-16.23 l -13.782,4.7839 c 2.2056,3.8457 5.2399,8.968 7.682,16.187 l -16.644,6.0844 c 2.3382,4.7756 4.034,9.7263 5.351,14.757 l 16.78,-6.0067 c 2.234,7.1145 3.2757,11.94 3.6467,16.883 l 13.670003,-4.6125 c -0.96838,-5.5672 -1.5716,-10.26 -4.2617,-17.01 l 16.887,-6.1138 c -0.60688,-4.0833 -1.558,-8.3638 -5.4391,-14.711 z"
         fill="#ff8080"
         stroke="#000000"
         stroke-width="0.75"
         id="path5-3"
         style="display:inline;fill:#ffd5d5;fill-opacity:1" /><g
         style="display:inline;fill:none"
         id="g1"
         transform="matrix(2.024728,-0.6720026,0.6720026,2.024728,137.71633,92.679863)"><path
           d="m 10.5,17.5 v 5"
           stroke="#333333"
           stroke-width="1.9091"
           stroke-linecap="round"
           stroke-linejoin="round"
           id="path1-8"
           style="stroke:#ff5555;stroke-opacity:1" /><path
           d="M 13,20.5 H 8"
           stroke="#333333"
           stroke-width="2"
           stroke-linecap="round"
           stroke-linejoin="round"
           id="path2-7"
           style="stroke:#ff5555;stroke-opacity:1" /><path
           d="m 16.4091,11.5 c 0,1.5732 -0.633,2.9966 -1.6604,4.0327 -0.3842,0.3874 -0.8231,0.7201 -1.3039,0.9855 -0.8183,0.4517 -1.7592,0.7091 -2.763,0.7091 -3.16306,0 -5.72725,-2.5642 -5.72725,-5.7273 0,-3.16308 2.56419,-5.72728 5.72725,-5.72728 3.1631,0 5.7273,2.5642 5.7273,5.72728 z"
           stroke="#333333"
           stroke-width="1.9091"
           id="path3-5"
           style="stroke:#ff5555;stroke-opacity:1" /><path
           d="M 15.4205,7.20453 19.9207,2.70434"
           stroke="#333333"
           stroke-width="1.9091"
           stroke-linecap="round"
           stroke-linejoin="round"
           id="path4-9"
           style="stroke:#ff5555;stroke-opacity:1" /><path
           d="m 19.9208,6.01135 v -3.307"
           stroke="#333333"
           stroke-width="1.9091"
           stroke-linecap="round"
           stroke-linejoin="round"
           id="path5-1"
           style="stroke:#ff5555;stroke-opacity:1" /><path
           d="m 16.5798,2.67046 3.3409,1e-5"
           stroke="#333333"
           stroke-width="1.9091"
           stroke-linecap="round"
           stroke-linejoin="round"
           id="path6-25"
           style="fill:none;fill-opacity:0.294;stroke:#ff5555;stroke-opacity:1" /></g></g><path
       d="m 169.23,83.913 c 5.973,-2.24 12.871,-1.7 18.805,0.69 4.929,1.293 9.606,3.878 12.99,7.542 -2.84,-4.134 -7.235,-7.483 -12.298,-9.579 -6.632,-1.869 -13.77,-1.569 -19.497,1.347 z"
       fill="#ffffff"
       fill-opacity="0.78"
       id="path5" /><path
       d="M 21.772,155.46 20.65,143.63 c -0.912,-9.608 3.563,-26.309 25.464,-32.841 l 134.43,-40.097 c 33.462,-9.981 42.75,11.805 44.847,26.662 l 2.186,15.483 c 1.3,9.213 -3.755,14.336 -9.287,16.191 L 51.68,184.903 C 41.082,188.457 23.366,172.267 21.772,155.46 Z"
       fill="#d7e3f4"
       fill-opacity="0.294"
       stroke="#000000"
       stroke-width="0.857"
       id="path6"
       style="display:inline" /><path
       d="m 184.02,72.34 c 6.21,0.308 13.239,1.045 19.573,4.225 0.455,0.229 0.906,0.47 1.35,0.723 6.162,1.866 12.56,6.181 17.47,15.32 -3.472,-9.73 -8.962,-15.814 -15.595,-19.585 a 32.51,32.51 0 0 0 -1.69,-0.518 C 197.53,70.398 189.901,71.22 184.02,72.339 Z"
       fill="#ffffff"
       id="path7" /></g></svg>
