<?xml version="1.0" encoding="UTF-8" standalone="no"?>
<svg
   viewBox="0 0 64 64"
   version="1.1"
   id="svg12"
   sodipodi:docname="cumFull.svg"
   xml:space="preserve"
   inkscape:version="1.2.1 (9c6d41e410, 2022-07-14)"
   xmlns:inkscape="http://www.inkscape.org/namespaces/inkscape"
   xmlns:sodipodi="http://sodipodi.sourceforge.net/DTD/sodipodi-0.dtd"
   xmlns="http://www.w3.org/2000/svg"
   xmlns:svg="http://www.w3.org/2000/svg"><defs
     id="defs16" /><sodipodi:namedview
     id="namedview14"
     pagecolor="#ffffff"
     bordercolor="#000000"
     borderopacity="0.25"
     inkscape:showpageshadow="2"
     inkscape:pageopacity="0.0"
     inkscape:pagecheckerboard="0"
     inkscape:deskcolor="#d1d1d1"
     showgrid="false"
     inkscape:zoom="9.2476309"
     inkscape:cx="14.111722"
     inkscape:cy="32.22447"
     inkscape:window-width="1920"
     inkscape:window-height="1017"
     inkscape:window-x="-8"
     inkscape:window-y="-8"
     inkscape:window-maximized="1"
     inkscape:current-layer="svg12" /><path
     fill="#f9f9f9"
     fill-rule="evenodd"
     stroke="#000"
     stroke-width=".5"
     d="M49.069 12.773l-9.932 24.508C28.986 62.332 69.4 60.94 59.48 37.439z"
     id="path2" /><path
     fill="#808080"
     fill-rule="evenodd"
     stroke="#000"
     stroke-width=".5"
     d="M6.17 39.991c-5.582 2.553-4.713 7.58-.975 10.152 2.955 2.033 7.197 1.808 8.807.046 9.858 2.994 10.173-5.584 8.864-7.745 9.952-5.71 14.043-13.917 18.676-21.085 1.15-2.251 1.408-5.52-1.722-6.283-2.043-.498-6.843 1.73-10.413 5.164-.334.321-.195 1.129.516 1.377C24.05 29.462 16.125 35.439 6.171 39.99z"
     id="path8" /><path
     fill-rule="evenodd"
     d="M29.92 21.622l.075-.237c.269.107.533.152.84.158.309.005.65-.031 1.07-.08.838-.097 1.932-.237 3.605-.173-1.67.019-2.75.24-3.565.418-.406.088-.76.17-1.092.206-.336.038-.66.033-1.008-.055zM13.907 50.267c.085.018.17.034.257.05.216-.325.486-.708.726-1.11.266-.447.492-.912.568-1.338-.152.398-.445.812-.767 1.197-.293.35-.612.678-.887.96.033.081.068.162.103.241zM41.474 21.473l.164-.17a.654.654 0 0 0-.208-.1 1.661 1.661 0 0 0-.228-.049 4.686 4.686 0 0 0-.52-.042 9.137 9.137 0 0 0-.912.018c.088.03.223.063.378.098s.33.074.5.119c.17.044.332.094.458.15a.805.805 0 0 1 .153.084c.036.027.056.054.05.063z"
     id="path10" /><g
     fill="none"
     stroke-linecap="round"
     id="g189"
     transform="matrix(0.798718,0,0,0.798718,23.792269,32.649364)"><path
       d="m 26.804,20.087 5.1336,-16.8 5.3031,16.734 -13.703,-10.262 16.956,0.031797 z"
       stroke="#000000"
       stroke-width="2.4085"
       id="path169" /><path
       d="M 26.804,20.087 31.9376,3.287 37.2606,20 23.5366,9.758 40.4926,9.789797 Z"
       stroke="#ff8080"
       stroke-width="1.742"
       id="path171" /></g></svg>
